<svg version="1.2" xmlns="http://www.w3.org/2000/svg" viewBox="0 0 396 294" width="396" height="294">
	<style>
		tspan { white-space:pre } 
		.s0 { fill: #6c429c } 
		.s1 { fill: #5c2d91 } 
		.s2 { fill: #5c2d91;stroke: #24004d;stroke-miterlimit:100;stroke-width: 10 } 
		.t3 { font-size: 81px;fill: #ffffff;font-weight: 400;font-family: "Arial";  } 
	</style>
	<path id="Layer 1 copy 2" fill-rule="evenodd" class="s0" d="m13.4 0.51h106.55c7.18 0 13 5.82 13 13v41.44c0 7.18-5.82 13-13 13h-106.55c-7.18 0-13-5.82-13-13v-41.44c0-7.18 5.82-13 13-13z"/>
	<path id="Layer 1" fill-rule="evenodd" class="s1" d="m13 29.23h370c7.18 0 13 5.82 13 13v238.76c0 7.18-5.82 13-13 13h-370c-7.18 0-13-5.82-13-13v-238.76c0-7.18 5.82-13 13-13z"/>
	<path id="Layer 1 copy 3" fill-rule="evenodd" class="s2" d="m57.96 62.11h357.68c7.29 0 12.45 5.9 11.53 13.19l-29 230.4c-0.92 7.29-7.57 13.19-14.86 13.19h-357.67c-7.29 0-12.45-5.9-11.53-13.19l29-230.4c0.92-7.29 7.57-13.19 14.85-13.19z"/>
	<text id=".NET" style="transform: matrix(1.617,0,0,1.617,36.834,110.767)">
		<tspan x="10" y="65" class="t3">.NET</tspan>
	</text>
</svg>